<?xml version="1.0" standalone="no"?>
<!DOCTYPE svg PUBLIC "-//W3C//DTD SVG 1.1//EN" "http://www.w3.org/Graphics/SVG/1.1/DTD/svg11.dtd" >
<svg xmlns="http://www.w3.org/2000/svg">
<metadata></metadata>
<defs>
<font id="LaplandDemiboldRegular" horiz-adv-x="1027" >
<font-face units-per-em="2048" ascent="1638" descent="-410" />
<missing-glyph horiz-adv-x="934" />
<glyph horiz-adv-x="2048" />
<glyph unicode="&#xd;" horiz-adv-x="934" />
<glyph unicode=" "  horiz-adv-x="934" />
<glyph unicode="&#x09;" horiz-adv-x="934" />
<glyph unicode="&#xa0;" horiz-adv-x="934" />
<glyph unicode="!" horiz-adv-x="327" d="M64 0v228h184v-228h-184zM64 367v932h184v-932h-184z" />
<glyph unicode="&#x22;" horiz-adv-x="598" d="M64 934v365h174l-6 -365h-168zM343 934v365h154l4 -365h-158z" />
<glyph unicode="#" horiz-adv-x="1187" d="M111 359l37 152h211l60 259h-224l29 153h229l87 372h135l-92 -372h213l84 372h134l-88 -372h178l-33 -153h-184l-64 -259h193l-33 -152h-195l-96 -363h-128l99 363h-214l-94 -363h-123l88 363h-209zM480 507h212l63 260h-211z" />
<glyph unicode="$" horiz-adv-x="975" d="M68 940q0 140 94.5 241.5t233.5 101.5v207h152v-207q51 -12 87 -31t57 -60v91h139v-331h-156q-21 80 -65.5 128t-138 47.5t-153 -46t-59.5 -125.5q0 -129 162 -190.5t318 -117.5q168 -98 168 -303q0 -140 -101.5 -232t-257.5 -121v-212h-156v216q-112 34 -164 84v-92 h-144v367h168q21 -103 58 -152q57 -72 157.5 -72t168.5 51.5t68 137.5q0 152 -164 220q-154 55 -306 111q-166 90 -166 289z" />
<glyph unicode="%" horiz-adv-x="1515" d="M64 1014.5q0 128.5 92 220t220 91.5q129 0 221.5 -90.5t92.5 -221.5t-91.5 -222.5t-222.5 -91.5t-221.5 93t-90.5 221.5zM218 1011.5q0 -63.5 43 -110.5t110 -47q66 0 117.5 46t51.5 114t-45.5 116t-113 48t-115.5 -51.5t-48 -115zM400 0l583 1299h144l-579 -1299h-148z M839 289q0 125 88.5 221.5t221.5 96.5t220.5 -95.5t87.5 -227.5t-88.5 -217t-222 -85t-220.5 91t-87 216zM987 294.5q0 -60.5 46 -110t115 -49.5t116 45t47 112t-47 114t-113 47t-115 -49t-49 -109.5z" />
<glyph unicode="&#x26;" horiz-adv-x="1302" d="M66 347q0 123 106 244l175 129q-92 94 -107 119q-43 68 -43 188t87 208.5t223.5 88.5t225 -88.5t88.5 -203.5t-64 -193q-31 -39 -154 -127l244 -236l148 316h251v-160h-142l-137 -281l268 -259l-123 -119l-248 240q-123 -162 -200 -203t-194 -41q-174 0 -289 111 t-115 267zM257 331.5q0 -72.5 63.5 -137.5t156.5 -65t161 64q41 39 101 142l-279 272q-74 -45 -97.5 -61.5t-62.5 -53.5q-43 -88 -43 -160.5zM367 1016q0 -68 60 -134q47 -45 68 -67q76 43 122 91t46 113t-44 109t-106 44t-104 -44t-42 -112z" />
<glyph unicode="'" horiz-adv-x="327" d="M64 934v365h174l-6 -365h-168z" />
<glyph unicode="(" horiz-adv-x="651" d="M66 527q0 246 139.5 465t373.5 311v-217q-150 -82 -232 -235t-82 -321.5t84 -312t230 -240.5v-217q-240 96 -376.5 308.5t-136.5 458.5z" />
<glyph unicode=")" horiz-adv-x="651" d="M64 -23q150 74 230 231t80 337t-77.5 302t-232.5 239v217q228 -101 368.5 -317t140.5 -462t-135.5 -456t-373.5 -308v217z" />
<glyph unicode="*" d="M148 971l47 141l258 -98v285h138v-285l269 98l47 -141l-263 -84l167 -228l-119 -88l-169 236l-164 -236l-115 88l168 228z" />
<glyph unicode="+" horiz-adv-x="922" d="M39 527v117h357v351h127v-351h353v-117h-353v-390h-127v390h-357z" />
<glyph unicode="," horiz-adv-x="487" d="M64 0v232h184v-281q0 -82 -30 -123q-43 -60 -154 -60v109q49 0 64.5 24.5t15.5 98.5h-80z" />
<glyph unicode="-" horiz-adv-x="598" d="M64 396v172h447v-172h-447z" />
<glyph unicode="." horiz-adv-x="487" d="M64 0v228h184v-228h-184z" />
<glyph unicode="/" horiz-adv-x="1086" d="M64 -443l812 1933h134l-811 -1933h-135z" />
<glyph unicode="0" d="M57 443v425q0 185 135.5 322.5t308.5 137.5q220 0 351 -134.5t131 -325.5v-425q0 -199 -137.5 -331t-325.5 -132t-325.5 131t-137.5 332zM252 439q0 -119 74 -205t201 -86t196 86t69 205v429q0 119 -75 204t-197.5 85t-195 -86t-72.5 -203v-429z" />
<glyph unicode="1" d="M236 1151v148h408v-1135h160v-164h-511v164h163v987h-220z" />
<glyph unicode="2" d="M99 0v164l521 503q70 68 104.5 117.5t34.5 134.5t-67.5 152.5t-157.5 67.5q-154 0 -216 -129q-20 -43 -33 -130h-186q8 57 18 115q35 131 115 214q113 117 297.5 117t302.5 -129.5t118 -303.5q0 -76 -44 -161t-171 -203l-392 -365h429v164h168v-328h-841z" />
<glyph unicode="3" d="M80 369h191q16 -101 88 -162t173.5 -61t162 75t60.5 172t-58.5 165t-160.5 82h-101v152l68 -2q69 0 109 21q60 41 79 68.5t19 107.5t-54.5 128.5t-136 48.5t-117 -40.5t-63.5 -128.5h-175q21 138 110 233.5t243 95.5t261.5 -92.5t107.5 -232.5q0 -94 -39 -154.5 t-119 -116.5q239 -129 239 -340q0 -176 -135.5 -294.5t-321.5 -118.5t-292 107t-138 287z" />
<glyph unicode="4" d="M23 335v149l584 815h220v-815h193v-149h-193v-171h160v-164h-507v164h160v171h-617zM232 484h408v587z" />
<glyph unicode="5" d="M45 351h203q47 -199 281 -199q109 0 187 82t78 202t-84 198t-189 78q-146 0 -246 -133l-164 41l117 679h671v-164h-519l-64 -343q109 82 238 82q172 0 306.5 -125t134.5 -311t-132 -321.5t-331 -136.5q-406 -1 -487 371z" />
<glyph unicode="6" d="M51 433q0 92 17.5 140t34 81l27.5 55t18 34l379 556h212l-316 -456q70 45 150 44q164 0 289 -130.5t125 -316.5t-134.5 -330.5t-324.5 -144.5t-333.5 143.5t-143.5 324.5zM236 438q0 -118 84 -202t200 -84t201 87t85 198t-85 198t-198 87t-200 -83t-87 -201z" />
<glyph unicode="7" d="M107 915v384h829v-168l-505 -1131h-214l522 1135h-450v-220h-182z" />
<glyph unicode="8" d="M92 373q0 237 232 339q-92 60 -119 97q-51 66 -51 195.5t105.5 226.5t254.5 97t253 -96.5t105 -227.5q0 -96 -39 -162t-117 -118q111 -47 177.5 -140t66.5 -206q0 -160 -126 -278t-324 -118t-308 110.5t-110 280.5zM273 374.5q0 -93.5 69.5 -163t168 -69.5t173.5 71.5 t75 170.5t-72.5 169.5t-172.5 70.5t-170.5 -78t-70.5 -171.5zM328 985q0 -76 49.5 -137.5t133.5 -61.5t137.5 55.5t53.5 127.5q0 25 -4 37q-10 68 -61.5 114t-127.5 46t-128.5 -52.5t-52.5 -128.5z" />
<glyph unicode="9" d="M47 886q0 166 145 311t333.5 145t329 -144t140.5 -312q0 -53 -11 -126t-41 -119t-111 -177q-187 -303 -303 -464h-236l331 456q-74 -46 -192 -46t-239 117q-146 140 -146 359zM236 865q0 -120 83 -205t202 -85t201 90t82 207t-83 198t-199 81t-201 -83t-85 -203z" />
<glyph unicode=":" horiz-adv-x="327" d="M64 0v228h184v-228h-184zM64 675v228h184v-228h-184z" />
<glyph unicode=";" horiz-adv-x="327" d="M64 0v232h184v-281q0 -101 -43 -142t-141 -41v109q57 0 68.5 28.5t11.5 94.5h-80zM64 671v232h184v-232h-184z" />
<glyph unicode="&#x3c;" horiz-adv-x="380" d="M64 412v124l219 287l17 -164l-132 -191l132 -189l-17 -154z" />
<glyph unicode="=" horiz-adv-x="922" d="M53 415v104h807v-104h-807zM53 655v108h807v-108h-807z" />
<glyph unicode="&#x3e;" horiz-adv-x="380" d="M64 279l135 189l-135 191l20 164l216 -287v-124l-216 -287z" />
<glyph unicode="?" horiz-adv-x="975" d="M64 911q0 177 123 302t300 125t296.5 -125.5t119.5 -291.5q0 -125 -98.5 -246t-207.5 -254l-14 -74h-183q6 41 12.5 86t20.5 76q41 101 211 254q37 45 51.5 74t14.5 103t-58.5 140.5t-172.5 66.5t-169 -74q-35 -47 -58 -162h-188zM400 0v228h183v-228h-183z" />
<glyph unicode="@" horiz-adv-x="1187" d="M0 598.5q0 290.5 170 502.5t409.5 212t365.5 -153t126 -405q0 -189 -93.5 -337.5t-232.5 -148.5q-60 0 -103 50t-43 124q-8 -66 -57.5 -120t-120 -54t-108.5 75t-38 168q0 243 105 408q62 98 159 98t132 -92l19 73h110l-100 -572q-4 -37 11 -64.5t44 -27.5q98 0 165 125 t67 260q0 230 -82 363q-105 170 -337 169q-160 0 -298.5 -189t-138.5 -438.5t91 -409.5q109 -191 305 -192q137 0 282 102q90 62 231 207q15 -34 -4 -88q-90 -138 -220.5 -215.5t-284.5 -77.5q-222 0 -376.5 178.5t-154.5 469zM390 446.5q0 -111.5 53 -111.5q72 0 127 121 q74 164 74 328t-55 164q-102 0 -170 -271q-29 -119 -29 -230.5z" />
<glyph unicode="A" horiz-adv-x="1470" d="M12 0v164h152l419 971h-156v164h392l480 -1135h148v-164h-513v164h149l-96 232h-523l-95 -232h146v-164h-503zM515 548h419l-206 531z" />
<glyph unicode="B" horiz-adv-x="1086" d="M41 0v164h154v967h-154v168h577q164 0 262.5 -88.5t98.5 -233.5q0 -84 -28 -139.5t-140 -141.5q101 -47 163 -125.5t62 -174.5q0 -396 -388 -396h-607zM388 172h199q154 0 213 72q43 53 43 151.5t-68.5 151t-189.5 52.5h-197v-427zM388 759h183q229 0 229 201 q0 88 -65.5 129.5t-159.5 41.5h-187v-372z" />
<glyph unicode="C" horiz-adv-x="1355" d="M35 657q0 263 205 472t453 209t442 -179v140h164v-369h-187q-74 98 -183.5 155.5t-226.5 57.5q-189 0 -328.5 -139.5t-139.5 -346t141.5 -348t330.5 -141.5q123 0 234 57.5t176 158.5h214q-70 -193 -242.5 -300t-389.5 -107q-281 0 -472 208.5t-191 471.5z" />
<glyph unicode="D" horiz-adv-x="1302" d="M41 0v164h154v971h-154v164h622q259 0 439.5 -186.5t180.5 -449.5q0 -302 -174.5 -482.5t-445.5 -180.5h-622zM388 176h244q205 0 327 120t122 379q0 211 -121 329.5t-324 118.5h-248v-947z" />
<glyph unicode="E" d="M41 0v164h154v971h-154v164h942v-365h-195v189h-400v-388h435v-156h-435v-407h400v195h195v-367h-942z" />
<glyph unicode="F" d="M41 0v164h154v971h-154v164h946v-365h-195v189h-404v-395h431v-153h-431v-411h152v-164h-499z" />
<glyph unicode="G" horiz-adv-x="1410" d="M39 632q0 279 194 491q193 211 482 211h3q115 0 237 -49.5t200 -129.5v144h164v-359h-211q-57 96 -164 145.5t-226 49.5q-211 0 -347.5 -153t-136.5 -345t140.5 -330.5t320 -138.5t301.5 80t166 232h-555v168h768v-648h-160v240q-55 -125 -210.5 -198t-306.5 -73 q-271 0 -465 210.5t-194 452.5z" />
<glyph unicode="H" horiz-adv-x="1355" d="M41 0v164h154v971h-154v164h499v-164h-152v-384h568v384h-152v164h499v-164h-152v-971h152v-164h-499v164h152v400h-568v-400h152v-164h-499z" />
<glyph unicode="I" horiz-adv-x="598" d="M41 0v164h154v971h-154v164h499v-164h-152v-971h152v-164h-499z" />
<glyph unicode="J" horiz-adv-x="975" d="M27 335h205q14 -80 57 -131.5t126 -51.5t127.5 74t44.5 170v743h-152v168h499v-168h-154v-772q0 -174 -98.5 -284t-277 -110t-269 101.5t-108.5 260.5z" />
<glyph unicode="K" horiz-adv-x="1302" d="M41 0v160h154v975h-154v164h499v-164h-152v-431l466 431h-134v164h507v-164h-129l-507 -464l532 -511h135v-160h-519v160h137l-488 472v-472h152v-160h-499z" />
<glyph unicode="L" horiz-adv-x="975" d="M41 0v164h154v971h-154v164h499v-164h-152v-959h363v191h193v-367h-903z" />
<glyph unicode="M" horiz-adv-x="1790" d="M41 0v164h154v971h-154v164h423l400 -1003l431 1003h431v-164h-152v-971h152v-164h-499v164h152v876l-445 -1040h-142l-419 1032v-868h159v-164h-491z" />
<glyph unicode="N" horiz-adv-x="1462" d="M41 0v164h154v971h-154v164h335l691 -971v807h-152v164h499v-164h-154v-1135h-185l-687 960v-796h152v-164h-499z" />
<glyph unicode="O" horiz-adv-x="1462" d="M39 647.5q0 271.5 206 479t483 207.5t475.5 -199t198.5 -480t-199 -483.5t-479 -202.5q-281 0 -483 203.5t-202 475zM240 651q0 -201 139.5 -344t340.5 -143t342 143t141 345t-140 344.5t-340 142.5t-341.5 -143.5t-141.5 -344.5z" />
<glyph unicode="P" horiz-adv-x="1086" d="M41 0v164h154v971h-154v164h546q199 0 318 -94q135 -105 135 -303t-118 -312t-302 -114h-232v-312h152v-164h-499zM388 655h211q105 0 177 57.5t72 169.5t-76 175t-181 63h-203v-465z" />
<glyph unicode="Q" horiz-adv-x="1574" d="M43 655.5q0 292.5 195 485.5t476 193t483.5 -209.5t202.5 -465.5q0 -181 -81 -327q-20 -34 -96 -129q100 -53 187 -78v134h148v-300q-35 -6 -100 -6q-115 0 -354 135q-158 -123 -371 -123q-289 0 -489.5 199t-200.5 491.5zM246 659q0 -39 10 -88q129 39 251 39 q183 0 347 -95q138 -86 221 -183q126 109 126 318.5t-141 345t-349 135.5t-336.5 -134.5t-128.5 -337.5zM293 415q181 -255 425 -255q55 0 94 9.5t140 58.5q-127 109 -156 131q-94 68 -172 82.5t-132 14.5q-61 0 -199 -41z" />
<glyph unicode="R" horiz-adv-x="1191" d="M41 0v164h154v971h-154v164h595q199 0 330.5 -122t131.5 -327q0 -152 -107 -259t-244 -123l232 -304h160v-164h-283l-413 587l148 2q121 0 216.5 63.5t95.5 195.5t-80 203.5t-203 71.5h-232v-959h131v-164h-478z" />
<glyph unicode="S" horiz-adv-x="922" d="M43 964q0 137 115 251.5t253.5 114.5t263.5 -127v96h148v-335h-175q-14 92 -62 139.5t-152 47.5t-152 -54.5t-48 -132.5q0 -137 168 -194q304 -101 312 -107q168 -97 168 -335q0 -148 -122 -257.5t-304 -109.5q-39 0 -121.5 41t-129.5 94v-96h-156v369h179 q0 -107 64.5 -168t169 -61t164.5 56q61 57 61 172q0 114 -166 174q-296 107 -310 115q-168 99 -168 307z" />
<glyph unicode="T" horiz-adv-x="1244" d="M39 919v380h975v-380h-160v204h-230v-959h152v-164h-501v164h156v959h-232v-204h-160z" />
<glyph unicode="U" horiz-adv-x="1302" d="M41 1135v164h486v-164h-139v-688q0 -121 65.5 -207t183.5 -86t186 91t68 202v688h-136v164h484v-164h-153v-720q0 -187 -129.5 -316.5t-324.5 -129.5t-316 128.5t-121 329.5v708h-154z" />
<glyph unicode="V" horiz-adv-x="1361" d="M12 1135v164h499v-164h-142l323 -864l336 864h-144v164h483v-164h-144l-435 -1135h-209l-415 1135h-152z" />
<glyph unicode="W" horiz-adv-x="1765" d="M12 1135v164h499v-164h-152l224 -819l267 983h160l277 -979l217 815h-160v164h503v-164h-156l-304 -1135h-195l-258 940l-267 -940h-187l-324 1135h-144z" />
<glyph unicode="X" horiz-adv-x="1355" d="M35 0v164h148l381 499l-359 472h-145v164h504v-152h-133l248 -347l247 347h-138v152h503v-164h-136l-359 -472l378 -499h137v-164h-504v152h149l-277 375l-275 -375h136v-152h-505z" />
<glyph unicode="Y" horiz-adv-x="1219" d="M12 1135v164h480v-164h-137l265 -519l256 519h-141v164h480v-164h-140l-359 -688v-283h152v-164h-499v164h154v283l-367 688h-144z" />
<glyph unicode="Z" horiz-adv-x="975" d="M39 0v156l644 971h-443v-197h-176v369h855v-148l-648 -979h501v197h184v-369h-917z" />
<glyph unicode="[" horiz-adv-x="598" d="M64 -232v1531h484v-168h-285v-1191h285v-172h-484z" />
<glyph unicode="\" horiz-adv-x="1187" d="M84 1246h140l816 -1262h-129z" />
<glyph unicode="]" horiz-adv-x="598" d="M64 -60h287v1191h-287v168h484v-1531h-484v172z" />
<glyph unicode="^" horiz-adv-x="934" d="M-373 1071l313 281h120l316 -281h-216l-168 144l-160 -144h-205z" />
<glyph unicode="_" horiz-adv-x="1187" d="M0 -419h1184v-84h-1184v84z" />
<glyph unicode="`" horiz-adv-x="934" d="M-267 1291l72 152l466 -259l-62 -129z" />
<glyph unicode="a" horiz-adv-x="1211" d="M23 469q-1 208 143 365t349 157q107 0 199 -52t154 -143v168h316v-164h-140v-636h140v-164h-316v156q-113 -176 -330.5 -176t-365.5 140q-149 140 -149 349zM205 481.5q0 -138.5 95.5 -236t233.5 -97.5t238 100t100 238.5t-99.5 233.5t-238 95t-234 -97.5t-95.5 -236z " />
<glyph unicode="b" horiz-adv-x="1211" d="M49 0v164h142v971h-142v164h318v-507q60 92 151 141.5t192 49.5q193 0 338.5 -145t145.5 -359.5t-142 -352.5t-338 -138q-103 0 -195 45t-152 131v-164h-318zM359 485q0 -141 101.5 -239t242.5 -98t228 100.5t87 242.5t-88.5 237t-223 95t-241 -98.5t-106.5 -239.5z" />
<glyph unicode="c" horiz-adv-x="1047" d="M43 488q0 211 146 357t329.5 146t320.5 -137v110h152v-305h-164q-47 78 -125 117t-171 39q-135 0 -224 -102.5t-89 -235t97 -233t231 -100.5q90 0 169 46t116 126h193q-74 -164 -189 -254q-114 -90 -305 -90h-2q-192 0 -338.5 152.5t-146.5 363.5z" />
<glyph unicode="d" horiz-adv-x="1230" d="M27 489.5q0 210.5 148 351.5q147 140 337 140h3q107 0 200.5 -49.5t152.5 -143.5v347h-140v164h316v-1135h140v-164h-316v172q-60 -88 -151 -139t-188 -51q-209 0 -355.5 148.5t-146.5 359zM205 481q0 -139 96.5 -238t234.5 -99t237 104.5t99 239.5t-98.5 231t-236 96 t-235 -97.5t-97.5 -236.5z" />
<glyph unicode="e" d="M27 488q0 209 149.5 356t352.5 147q162 0 295.5 -100.5t178.5 -262.5q17 -69 17 -213h-825q16 -131 113.5 -208.5t222.5 -77.5q159 0 273 150h183q-53 -142 -180.5 -220.5t-283.5 -78.5q-217 0 -356.5 149.5t-139.5 358.5zM195 556h665q0 109 -110 192t-225 83 t-214.5 -79t-115.5 -196z" />
<glyph unicode="f" horiz-adv-x="559" d="M49 0v164h142v636h-142v164h142q0 90 15.5 151t69.5 117q100 102 264 102v-156q-120 -18 -160 -95q-15 -30 -15 -61q0 -44 4 -58h171v-164h-173v-636h144v-164h-462z" />
<glyph unicode="g" horiz-adv-x="1211" d="M41 472q0 197 143.5 352t334.5 155q237 0 372 -191v176h305v-164h-141v-689q0 -211 -133.5 -358t-355.5 -147q-174 0 -291 82t-176 220h205q63 -146 266 -146q129 0 222.5 93.5t93.5 226.5l-2 97q-53 -94 -141 -146.5t-185 -52.5q-222 0 -369.5 147.5t-147.5 344.5z M220 478q0 -138 99.5 -236t240.5 -98q140 0 237.5 100t97.5 238.5t-103 235.5t-242 97t-234.5 -99.5t-95.5 -237.5z" />
<glyph unicode="h" horiz-adv-x="1191" d="M31 0v164h141v971h-141v164h316v-495q47 78 131 127.5t183 49.5q158 0 253.5 -117t95.5 -312l4 -388h141v-164h-459v164h143v328q0 135 -43 210q-59 103 -186 104q-134 0 -226 -116q-37 -86 -37 -171v-355h141v-164h-457z" />
<glyph unicode="i" horiz-adv-x="544" d="M49 0v164h142v636h-142v164h320v-800h142v-164h-462zM191 1086v213h178v-213h-178z" />
<glyph unicode="j" horiz-adv-x="487" d="M41 -199q51 8 123 78q40 35 40 76l-1 57l2 788h-141v164h316v-968q0 -164 -66 -230q-45 -45 -118 -83t-155 -46v164zM205 1086v213h175v-213h-175z" />
<glyph unicode="k" horiz-adv-x="1086" d="M31 0v164h141v971h-141v164h320v-767l293 283h-121v149h468v-164h-137l-310 -289l340 -347h160v-164h-500v164h104l-297 316v-316h113v-164h-433z" />
<glyph unicode="l" horiz-adv-x="563" d="M49 0v164h150v971h-142v164h316v-1135h146v-164h-470z" />
<glyph unicode="m" horiz-adv-x="1829" d="M49 0v164h142v636h-142v164h302v-157q107 188 273 188q88 0 180.5 -63.5t147.5 -159.5q110 213 339 215q170 0 260.5 -124t90.5 -280v-419h141v-164h-457v164h141v376q0 117 -57.5 196t-165.5 79t-174.5 -80t-66.5 -183v-388h140v-164h-460v164h144v368q0 110 -52 198 t-162 88h-1q-111 0 -178 -78.5t-67 -199.5v-376h140v-164h-458z" />
<glyph unicode="n" horiz-adv-x="1211" d="M49 0v164h142v636h-142v164h318v-153q51 84 130.5 129t175.5 45q164 0 264.5 -112t100.5 -280l2 -429h140v-164h-456v164h140v365q0 113 -61 197q-60 83 -168 83h-3q-148 0 -215 -95q-51 -72 -50 -195v-355h140v-164h-458z" />
<glyph unicode="o" horiz-adv-x="1086" d="M23 484q0 211 148.5 359t357 148t356 -147t147.5 -358t-145.5 -360t-358 -149t-359 148t-146.5 359zM195 484q0 -138 96.5 -237t234.5 -99t236 98.5t98 234.5t-97.5 235t-233.5 99q-137 0 -235.5 -96.5t-98.5 -234.5z" />
<glyph unicode="p" horiz-adv-x="1230" d="M49 -179h142v979h-142v164h318v-180q126 195 366 195q193 0 332.5 -153t139.5 -355t-141 -345.5t-346.5 -143.5t-350.5 186v-347h140v-168h-458v168zM363 482q0 -142 97.5 -238t235 -96t235 99.5t97.5 230.5t-92.5 235t-226 104t-240 -96.5t-106.5 -238.5z" />
<glyph unicode="q" horiz-adv-x="1222" d="M27 481q0 194 138.5 347t361.5 153q99 0 188 -52.5t153 -144.5v180h316v-164h-140v-979h140v-168h-456v168h140v347q-148 -183 -380 -184q-191 0 -326 151.5t-135 345.5zM205 478.5q0 -135.5 97.5 -233t234.5 -97.5t236 97t99 236t-100.5 235.5t-236 96.5t-233 -99.5 t-97.5 -235z" />
<glyph unicode="r" horiz-adv-x="690" d="M49 0v164h142v636h-142v164h306v-180q67 125 203 174q45 17 97 17v-183q-64 -8 -108 -21.5t-89 -52.5q-92 -78 -91 -223v-331h140v-164h-458z" />
<glyph unicode="s" horiz-adv-x="815" d="M45 0v283h179q0 -76 56.5 -127t124 -51t111.5 30.5t52 84.5l3 59q0 74 -66 94q-2 4 -85 25.5t-174.5 46.5t-146 97t-54.5 175.5t87.5 185.5t194 82t158 -20.5t98.5 -77.5v77h133v-256h-172q0 66 -47.5 101.5t-107.5 35.5t-99.5 -34.5t-45.5 -94.5q0 -41 31 -74t84 -51 l273 -94q64 -23 94 -62q42 -58 42 -182t-93.5 -200t-214 -76t-177.5 33q-18 10 -100 86v-96h-138z" />
<glyph unicode="t" horiz-adv-x="616" d="M23 800v164h168v335h176v-335h185v-164h-185v-636h197v-164h-373v800h-168z" />
<glyph unicode="u" horiz-adv-x="1183" d="M35 800v164h320v-562q0 -107 63.5 -185.5t177.5 -78.5t177.5 78t63.5 178l2 406h-147v164h324v-800h143v-164h-309v137q-106 -160 -318 -160q-148 0 -253 115t-105 253l2 455h-141z" />
<glyph unicode="v" horiz-adv-x="1178" d="M31 800v164h445v-164h-113l220 -583l232 583h-125v164h441v-164h-128l-328 -800h-187l-320 800h-137z" />
<glyph unicode="w" horiz-adv-x="1665" d="M31 800v164h441v-164h-125l180 -587l232 690h140l205 -686l195 583h-129v164h445v-164h-140l-283 -800h-176l-193 612l-224 -612h-168l-259 800h-141z" />
<glyph unicode="x" horiz-adv-x="1103" d="M31 0v164h133l263 324l-263 312h-125v164h437v-137h-96l168 -220l164 220h-102v137h441v-164h-128l-256 -312l267 -324h133v-164h-451v144h96l-164 223l-168 -223h96v-144h-445z" />
<glyph unicode="y" horiz-adv-x="1158" d="M31 800v164h449v-164h-117l212 -576l232 576h-120v164h444v-164h-132l-412 -991h137v-164h-457v164h133l80 195l-312 796h-137z" />
<glyph unicode="z" horiz-adv-x="815" d="M23 0v144l517 656h-337v-145h-158v309h714v-160l-500 -640h373v140h152v-304h-761z" />
<glyph unicode="{" horiz-adv-x="682" d="M60 607v33q59 0 97 45.5t38 106.5v640q37 101 148 150q45 0 131 9t97 8v-29q-70 0 -123.5 -31t-71.5 -92l8 -368q0 -194 -29 -332q-45 -94 -138 -123q49 -18 91 -53q60 -95 72 -156v-632q6 -16 17 -29t22 -29q85 -33 145 -33l-4 -31q-48 -12 -126 -12t-148.5 39 t-82.5 125v606q0 101 -55 156q-51 15 -88 32z" />
<glyph unicode="|" horiz-adv-x="1187" d="M503 -23v1622h160v-1622h-160z" />
<glyph unicode="}" horiz-adv-x="682" d="M60 1539v49q113 0 196 -20.5t156 -81.5q18 -23 23 -54v-656q14 -49 49 -93q37 -25 80 -39v-32q-62 -18 -93.5 -76t-31.5 -128v-527q0 -173 -119 -213q-121 -23 -248 -23v51q108 0 187 56v660q15 130 176 208q-92 51 -125 91t-43 89v622q-16 45 -54 94q-74 23 -153 23z " />
<glyph unicode="~" horiz-adv-x="934" d="M-320 603q29 18 73.5 44t94 26t144 -27.5t125.5 -27.5t66 20.5t49 28.5l92 -115q-99 -82 -207 -82q-39 0 -119 29.5t-114.5 29.5t-107.5 -57z" />
<glyph unicode="&#xa1;" horiz-adv-x="327" d="M64 -335v934h184v-934h-184zM64 735v229h184v-229h-184z" />
<glyph unicode="&#xa2;" horiz-adv-x="967" d="M25 470q0 207 139.5 362t336.5 155q73 0 154 -27l92 218h109l-105 -259l68 -65v110h152v-305h-164q-41 74 -117 113l-247 -616l80 -6q209 0 288 166h195q-80 -168 -185 -252t-285 -84q-72 0 -156 20l-80 -199h-109l94 238q-258 171 -260 431zM201 470q0 -92 40 -151.5 t114 -119.5l240 605q-41 9 -84 9q-140 0 -225 -100.5t-85 -242.5z" />
<glyph unicode="&#xa3;" horiz-adv-x="1191" d="M64 571v149h145q-62 115 -63 216q0 154 129 273t308 119q82 0 140.5 -30t126.5 -95v96h174v-339h-174q-31 123 -96 160t-163 37t-169 -67.5t-71 -159.5v-50q0 -22 4 -45l68 -115h400v-149h-300q72 -94 93.5 -142.5t21.5 -100t-24.5 -104t-65.5 -72.5h160q105 16 117 20 q66 20 102.5 70t36.5 97.5t-8 103.5h167q6 -47 6 -99q0 -114 -76 -213q-101 -131 -329 -131h-576v152h176q66 43 82 63q35 43 35 117.5t-68 159.5q-35 39 -69 79h-240z" />
<glyph unicode="&#xa4;" horiz-adv-x="1341" d="M123 275l131 135q-107 138 -107.5 338.5t107.5 330.5l-131 136l94 100l132 -135q140 111 322.5 111t319.5 -111l129 135l93 -98l-119 -129q111 -154 111 -347t-115 -329l127 -135l-90 -105l-128 134q-137 -119 -326 -119t-328 121l-128 -134zM400 731q0 -125 78 -201 t198 -76t197 75t77 200t-78 211t-196 86t-197 -85t-79 -210z" />
<glyph unicode="&#xa5;" horiz-adv-x="1191" d="M12 1032v267h532v-267h-91l154 -304l160 304h-100v267h529v-267h-110l-195 -347h135v-108h-195l-64 -113v-23h259v-104h-259v-70h120v-267h-571v267h127v70h-225v104h225v23l-63 113h-162v108h102l-191 347h-117z" />
<glyph unicode="&#xa6;" horiz-adv-x="975" d="M187 394h176v-850h-176v850zM197 529v850h176v-850h-176z" />
<glyph unicode="&#xa7;" d="M172 96h179q21 -92 43 -123q41 -59 116 -59t136.5 42t61.5 93q0 99 -96 146q-164 49 -249 90q-160 76 -160 230q0 82 46 156t120 105q-80 47 -102 78q-39 55 -39 167t85 193t218.5 81t228 -78t94.5 -207l-164 4q-18 62 -33 82q-33 39 -105.5 39t-113 -39t-40.5 -83 t23.5 -74t62.5 -59l183 -76q199 -93 199 -279q0 -146 -142 -217q80 -37 119 -94.5t39 -172.5t-111.5 -201t-258.5 -86t-237 98t-103 244zM374 533.5q0 -53.5 46 -95.5t115 -42t115 31.5t46 96.5t-46.5 110t-111 45t-114.5 -46t-50 -99.5z" />
<glyph unicode="&#xa8;" horiz-adv-x="934" d="M-232 1063v244h179v-244h-179zM49 1063v244h183v-244h-183z" />
<glyph unicode="&#xa9;" horiz-adv-x="1564" d="M8 735.5q0 323.5 224 550t547 226.5t549.5 -226.5t226.5 -550.5t-225.5 -549t-548.5 -225t-548 225.5t-225 549zM191 735.5q0 -259.5 168 -425.5t420.5 -166t423 166.5t170.5 424t-169.5 425.5t-424.5 168t-421.5 -166.5t-166.5 -426zM298 728.5q0 145.5 136.5 260.5 t330.5 115q147 0 269 -82v64h189v-261h-219q-35 45 -100 72.5t-144.5 27.5t-153.5 -55t-74 -132t75.5 -136.5t196.5 -59.5t200 96h246q-43 -127 -177.5 -202t-314 -75t-320 111t-140.5 256.5z" />
<glyph unicode="&#xaa;" horiz-adv-x="721" d="M35 681v138h634v-138h-634zM60 1148q0 108 73.5 185t158 77t131.5 -64v51h189v-139h-48v-234h48v-138h-189v44q-57 -60 -139 -60t-153 85t-71 193zM203 1136q0 -50 33 -83t79 -33t77 35t31 87t-33 85t-79 33t-77 -37t-31 -87z" />
<glyph unicode="&#xab;" horiz-adv-x="651" d="M64 412v124l219 287l17 -164l-132 -191l132 -189l-17 -154zM332 412v120l208 275l20 -163l-125 -176l125 -175l-20 -149z" />
<glyph unicode="&#xac;" horiz-adv-x="2457" d="M80 -170v1567h2300v-1567h-2300zM127 -88v-35h318v35h-35q-47 0 -65.5 14t-18.5 70l2 328l146 -2l10 51l-4 3h-152v121q0 70 11 98q20 47 66.5 47t72.5 -20l21 -109h61q76 232 249 636q203 -541 229 -636h62q35 142 121 439t113 335q16 10 59 10v37h-244v-37 q103 0 103 -27q0 -66 -160 -581l-238 651h-29l-250 -646q-129 569 -128 572q0 31 74 31h25v37h-292v-37q55 0 66.5 -12.5t21 -57.5t57.5 -223.5t57 -277.5q-45 0 -119 -68q-96 -90 -107 -160q-4 -26 -4 -50v-40q0 -18 2 -34q-41 -21 -82 -40v-20l82 8l2 -314 q0 -66 -17.5 -81t-85.5 -15zM441 150q0 -123 69 -204t194 -81t209 84t84 207t-73.5 194t-194.5 71t-204.5 -74t-83.5 -197zM554 176.5q0 92.5 39 151t113 58.5q98 0 146 -91q37 -71 37 -168.5t-37 -159.5t-124 -62.5t-135 99.5q-39 80 -39 172.5zM973 -88v-35h295l-2 35 q-60 0 -80 17.5t-20 62.5l4 111v61q0 115 37 150t112.5 35t103.5 -45t28 -130v-246q-6 -35 -8 -51h199v35q-60 0 -75.5 10t-14.5 48t1 67v189q0 195 -192 195q-51 0 -102.5 -31t-86.5 -76q2 31 2 49q0 39 -12 58q-97 -45 -189 -45v-35q25 2 43 2q53 0 53 -33v-353 q0 -29 -13.5 -38t-41 -8t-41.5 1zM1311 1090q0 -177 237 -200.5t237 -154.5q0 -84 -66.5 -129.5t-139 -45.5t-133.5 18t-77 58l-2 97h-39v-111q0 -33 -6 -66q103 -43 187.5 -43t134.5 12q10 -85 10 -149q-31 -18 -92 -39v-23h92v-322q0 -127 133 -127q16 0 34 4t38 8l56 70 l-17 22q-27 -31 -71.5 -31t-59.5 39t-15 79v268l103 4q33 0 60 -6l12 54h-175q0 126 9 195q123 97 123 209q0 179 -235 201t-235 152q0 78 55.5 121t116.5 43q126 0 187 -55q12 -24 12 -62v-47h35q0 86 19 164q-113 43 -234 43t-207.5 -63.5t-86.5 -186.5zM1857 523h328v37 h-43q-33 0 -49 11.5t-16 52.5v513l-2 80q0 49 19.5 64.5t90.5 15.5v37h-328v-37q76 0 92.5 -14.5t16.5 -61.5v-593q0 -45 -18.5 -56.5t-49.5 -11.5h-41v-37zM1927 254q0 -107 159 -138.5t159 -105.5q0 -49 -38 -77.5t-106.5 -28.5t-99.5 31.5t-31 113.5h-33l-8 -137 q0 -47 168 -47q96 0 168 49t72 141q0 103 -160 136t-160 102q0 45 32 69t71 24q76 0 125 -58q10 -39 10 -72l33 -2q0 35 6 77t8 65q-86 25 -171 25t-144.5 -40t-59.5 -127z" />
<glyph unicode="&#xad;" horiz-adv-x="922" d="M39 527v117h837v-117h-837z" />
<glyph unicode="&#xae;" horiz-adv-x="1564" d="M8 735.5q0 323.5 224 550t547 226.5t549.5 -226.5t226.5 -550.5t-225.5 -549t-548.5 -225t-548 225.5t-225 549zM191 735.5q0 -259.5 168 -425.5t420.5 -166t423 166.5t170.5 424t-169.5 425.5t-424.5 168t-421.5 -166.5t-166.5 -426zM433 341v162h80v461h-80v163h433 q113 0 187 -78t74 -176.5t-44 -171.5t-127 -85l103 -113h86v-162h-217l-210 287v-125h52v-162h-337zM718 726q146 0 184 42q15 18 21 43t5 36q0 86 -97 103h-113v-224z" />
<glyph unicode="&#xaf;" horiz-adv-x="867" d="M-316 1149v175h646v-175h-646z" />
<glyph unicode="&#xb0;" horiz-adv-x="635" d="M121 1004.5q0 78.5 53.5 138.5t139.5 60t140.5 -60t54.5 -139t-54.5 -134t-138.5 -55t-139.5 55.5t-55.5 134zM199 1003.5q0 -45.5 33 -79t85 -33.5t85 35t33 84t-37 82t-86 33t-81 -38t-32 -83.5z" />
<glyph unicode="&#xb1;" horiz-adv-x="1123" d="M90 39v138h946v-138h-946zM90 538v141h403v249h139v-249h404v-141h-404v-249h-139v249h-403z" />
<glyph unicode="&#xb2;" horiz-adv-x="614" d="M29 1145q0 107 77 186t182 79t180.5 -72t75.5 -173t-39 -133l-242 -219h115v55h158v-205h-499v150l248 234q45 43 63 62.5t19 45.5q-4 35 -25.5 58.5t-54 23.5t-58.5 -22.5t-26 -69.5h-174z" />
<glyph unicode="&#xb3;" horiz-adv-x="653" d="M37 897h185q16 -31 45 -51.5t61 -14.5q72 13 72 90q0 33 -19.5 56.5t-48.5 26.5h-65v137h55q68 0 68 74q0 25 -21.5 46.5t-47.5 25.5t-47.5 -18.5t-27.5 -49.5h-170q0 90 72 149.5t169.5 59.5t167 -55.5t69.5 -112.5q0 -116 -74 -174q117 -47 117 -193q0 -86 -78 -148 t-180 -72q-109 0 -200 61t-102 163z" />
<glyph unicode="&#xb4;" horiz-adv-x="934" d="M-271 1184l466 263l76 -152l-480 -236z" />
<glyph unicode="&#xb5;" horiz-adv-x="1139" d="M88 -209q107 321 107 564l2 363h-103v265h392l-2 -548q0 -41 8 -80q25 -109 142 -109q49 0 90 31q64 48 64 135v35l2 271h-105v265h403l8 -716h92v-267h-377v99q-115 -113 -255 -113q-35 0 -74 8q-29 6 -73 -128.5t-40 -152.5q-66 14 -131 26q-135 37 -150 52z" />
<glyph unicode="&#xb6;" horiz-adv-x="1341" d="M90 1012v14q0 164 128.5 290.5t294.5 126.5h599v-148h-129v-1627h-148v1625l-139 2v-1625l-154 -2v898q-193 18 -298 103q-129 103 -152 318q-2 14 -2 25z" />
<glyph unicode="&#xb7;" horiz-adv-x="507" d="M140 651.5q0 58.5 39.5 103.5t98 45t103 -39t44.5 -96.5t-38 -102.5t-106 -45q-55 0 -98 38t-43 96.5z" />
<glyph unicode="&#xb8;" horiz-adv-x="934" d="M-179 -335h111q14 -25 24.5 -41t41.5 -16t50.5 18.5t19.5 49.5q0 78 -66 78q-39 4 -59 -33l-99 39l88 220h109l-49 -128l20 2q70 0 117.5 -48t47.5 -129t-55.5 -128.5t-123.5 -47.5t-119 44.5t-58 119.5z" />
<glyph unicode="&#xb9;" horiz-adv-x="390" d="M12 1285v141h236v-599h72v-154h-302v154h70v458h-76z" />
<glyph unicode="&#xba;" horiz-adv-x="711" d="M35 681v146h615v-146h-615zM74 1150q0 99 81 179.5t183 80.5t184.5 -80t82.5 -181t-82 -181.5t-185.5 -80.5t-183.5 82t-80 181zM228 1148q0 -46 33.5 -80t83 -36t83.5 36t34 83t-37 78t-83 33t-80 -34t-34 -80z" />
<glyph unicode="&#xbb;" horiz-adv-x="651" d="M64 293l127 175l-127 176l20 163l209 -275v-120l-209 -268zM324 279l132 189l-132 191l19 164l217 -287v-124l-217 -287z" />
<glyph unicode="&#xbc;" horiz-adv-x="1345" d="M12 1285v141h236v-599h72v-154h-302v154h70v458h-76zM156 176v195l726 567v-201zM712 197v137l277 390h189v-390h103v-137h-103v-57h74v-150h-310v150h72v57h-302zM893 334h121v175z" />
<glyph unicode="&#xbd;" horiz-adv-x="1365" d="M12 1285v141h236v-599h72v-154h-302v154h70v458h-76zM205 195v195l725 556v-201zM800 482q0 98 57.5 170t154.5 89q27 6 51 6q88 0 156.5 -54.5t89.5 -142.5q2 -18 2 -56t-7 -64q-11 -42 -67.5 -100.5t-68.5 -70.5l-134 -109h115v55h158v-205h-500v150l250 232 q59 55 80 96q0 47 -24.5 71t-57.5 24t-57.5 -24t-24.5 -67h-173z" />
<glyph unicode="&#xbe;" horiz-adv-x="1433" d="M-12 897h186q19 -48 42.5 -58t48.5 -10t47 15q41 26 41 83.5t-68 73.5q-18 6 -36 4.5t-32 -1.5v137h40q38 0 61 19.5t23 39.5v27q-4 8 -4 10q-25 49 -70 48.5t-62 -31.5q-2 -2 -8 -35h-170q0 90 72.5 149.5t165 59.5t157.5 -46q85 -59 85 -147t-76 -149q53 -21 82 -64.5 t29 -98.5q8 -98 -69 -169t-182 -81q-109 0 -200 61t-103 163zM263 176v204l726 558v-201zM811 197v137l277 390h188v-390h105v-137h-105v-57h74v-150h-312v150h74v57h-301zM989 334h123v175z" />
<glyph unicode="&#xbf;" horiz-adv-x="975" d="M66 18.5q0 147.5 82 252.5q78 80 159 166t81 179h183l-9 -103q-8 -82 -154.5 -224.5t-146.5 -251t66.5 -162t168.5 -53.5q189 1 224 231h187q0 -176 -125 -301t-292.5 -125t-295.5 122t-128 269.5zM388 735v229h182l-2 -229h-180z" />
<glyph unicode="&#xc0;" horiz-adv-x="1470" d="M12 0v164h152l419 971h-156v164h392l480 -1135h148v-164h-513v164h149l-96 232h-523l-95 -232h146v-164h-503zM223 1609l72 152l466 -259l-62 -129zM515 548h419l-206 531z" />
<glyph unicode="&#xc1;" horiz-adv-x="1470" d="M12 0v164h152l419 971h-156v164h392l480 -1135h148v-164h-513v164h149l-96 232h-523l-95 -232h146v-164h-503zM515 548h419l-206 531zM667 1502l466 263l76 -152l-480 -236z" />
<glyph unicode="&#xc2;" horiz-adv-x="1470" d="M12 0v164h152l419 971h-156v164h392l480 -1135h148v-164h-513v164h149l-96 232h-523l-95 -232h146v-164h-503zM308 1420l313 281h120l316 -281h-216l-168 144l-160 -144h-205zM515 548h419l-206 531z" />
<glyph unicode="&#xc3;" horiz-adv-x="1470" d="M12 0v164h152l419 971h-156v164h392l480 -1135h148v-164h-513v164h149l-96 232h-523l-95 -232h146v-164h-503zM351 1595q100 66 185 66q43 0 125 -29t108.5 -29t53.5 7.5t80 48.5l92 -119q-76 -57 -109 -67.5t-79 -10.5t-132 26.5t-123 26.5t-60.5 -17.5t-44.5 -33.5z M515 548h419l-206 531z" />
<glyph unicode="&#xc4;" horiz-adv-x="1470" d="M12 0v164h152l419 971h-156v164h392l480 -1135h148v-164h-513v164h149l-96 232h-523l-95 -232h146v-164h-503zM445 1391v244h179v-244h-179zM515 548h419l-206 531zM726 1391v244h183v-244h-183z" />
<glyph unicode="&#xc5;" horiz-adv-x="1470" d="M12 0v164h152l419 971h-156v164h392l480 -1135h148v-164h-513v164h149l-96 232h-523l-95 -232h146v-164h-503zM506 1569.5q0 86.5 60.5 151t145.5 64.5q86 0 150.5 -60.5t64.5 -147.5t-58.5 -149t-146.5 -62t-152 58.5t-64 145zM515 548h419l-206 531zM615 1570 q0 -41 28 -69t69 -28t69.5 28t28.5 69t-28.5 69.5t-69.5 28.5t-69 -28.5t-28 -69.5z" />
<glyph unicode="&#xc6;" horiz-adv-x="1790" d="M12 0v164h156l663 971h-148v164h1069v-365h-194v189h-403v-392h440v-148h-440v-411h403v195h194v-367h-945v140h157v264h-428l-177 -264h152v-140h-499zM624 548h340v507z" />
<glyph unicode="&#xc7;" horiz-adv-x="1355" d="M35 665.5q0 254.5 205 463.5t453 209t442 -179v140h164v-369h-187q-74 98 -183.5 155.5t-226.5 57.5q-189 0 -328.5 -139.5t-139.5 -346t141.5 -348t330.5 -141.5q123 0 234 57.5t176 158.5h214q-68 -187 -233 -297t-369 -110l-34 -86l20 2q70 0 118 -48t48 -129 t-56 -128.5t-124 -47.5t-118.5 44.5t-58.5 119.5h111q14 -25 24.5 -41t41.5 -16t50.5 18.5t19.5 49.5q0 78 -66 78q-39 4 -58 -33l-100 39l72 183q-254 31 -418.5 230t-164.5 453.5z" />
<glyph unicode="&#xc8;" d="M41 0v164h154v971h-154v164h942v-365h-195v189h-400v-388h435v-156h-435v-407h400v195h195v-367h-942zM113 1609l72 152l466 -259l-62 -129z" />
<glyph unicode="&#xc9;" d="M41 0v164h154v971h-154v164h942v-365h-195v189h-400v-388h435v-156h-435v-407h400v195h195v-367h-942zM478 1492l466 263l76 -152l-480 -236z" />
<glyph unicode="&#xca;" d="M41 0v164h154v971h-154v164h942v-365h-195v189h-400v-388h435v-156h-435v-407h400v195h195v-367h-942zM167 1420l313 281h120l316 -281h-216l-168 144l-160 -144h-205z" />
<glyph unicode="&#xcb;" d="M41 0v164h154v971h-154v164h942v-365h-195v189h-400v-388h435v-156h-435v-407h400v195h195v-367h-942zM339 1430v244h179v-244h-179zM620 1430v244h183v-244h-183z" />
<glyph unicode="&#xcc;" horiz-adv-x="598" d="M-193 1599l72 152l466 -259l-62 -129zM41 0v164h154v971h-154v164h499v-164h-152v-971h152v-164h-499z" />
<glyph unicode="&#xcd;" horiz-adv-x="598" d="M41 0v164h154v971h-154v164h499v-164h-152v-971h152v-164h-499zM222 1502l466 263l76 -152l-480 -236z" />
<glyph unicode="&#xce;" horiz-adv-x="598" d="M-38 1418l313 281h120l316 -281h-216l-168 144l-160 -144h-205zM41 0v164h154v971h-154v164h499v-164h-152v-971h152v-164h-499z" />
<glyph unicode="&#xcf;" horiz-adv-x="598" d="M41 0v164h154v971h-154v164h499v-164h-152v-971h152v-164h-499zM59 1430v244h179v-244h-179zM340 1430v244h183v-244h-183z" />
<glyph unicode="&#xd0;" horiz-adv-x="1302" d="M-121 534v176h316v425h-154v164h622q259 0 439.5 -186.5t180.5 -449.5q0 -302 -174.5 -482.5t-445.5 -180.5h-622v164h154v370h-316zM388 176h244q205 0 327 120t122 379q0 211 -121 329.5t-324 118.5h-248v-413h341v-176h-341v-358z" />
<glyph unicode="&#xd1;" horiz-adv-x="1462" d="M41 0v164h154v971h-154v164h335l691 -971v807h-152v164h499v-164h-154v-1135h-185l-687 960v-796h152v-164h-499zM378 1576q100 66 185 66q43 0 125 -29t108.5 -29t53.5 7.5t80 48.5l92 -119q-76 -57 -109 -67.5t-79 -10.5t-132 26.5t-123 26.5t-60.5 -17.5t-44.5 -33.5z " />
<glyph unicode="&#xd2;" horiz-adv-x="1462" d="M39 647.5q0 271.5 206 479t483 207.5t475.5 -199t198.5 -480t-199 -483.5t-479 -202.5q-281 0 -483 203.5t-202 475zM240 651q0 -201 139.5 -344t340.5 -143t342 143t141 345t-140 344.5t-340 142.5t-341.5 -143.5t-141.5 -344.5zM289 1628l72 152l466 -259l-62 -129z " />
<glyph unicode="&#xd3;" horiz-adv-x="1462" d="M39 647.5q0 271.5 206 479t483 207.5t475.5 -199t198.5 -480t-199 -483.5t-479 -202.5q-281 0 -483 203.5t-202 475zM240 651q0 -201 139.5 -344t340.5 -143t342 143t141 345t-140 344.5t-340 142.5t-341.5 -143.5t-141.5 -344.5zM634 1512l466 263l76 -152l-480 -236z " />
<glyph unicode="&#xd4;" horiz-adv-x="1462" d="M39 647.5q0 271.5 206 479t483 207.5t475.5 -199t198.5 -480t-199 -483.5t-479 -202.5q-281 0 -483 203.5t-202 475zM240 651q0 -201 139.5 -344t340.5 -143t342 143t141 345t-140 344.5t-340 142.5t-341.5 -143.5t-141.5 -344.5zM355 1418l313 281h120l316 -281h-216 l-168 144l-160 -144h-205z" />
<glyph unicode="&#xd5;" horiz-adv-x="1462" d="M39 647.5q0 271.5 206 479t483 207.5t475.5 -199t198.5 -480t-199 -483.5t-479 -202.5q-281 0 -483 203.5t-202 475zM240 651q0 -201 139.5 -344t340.5 -143t342 143t141 345t-140 344.5t-340 142.5t-341.5 -143.5t-141.5 -344.5zM398 1574q100 66 185 66q43 0 125 -29 t108.5 -29t53.5 7.5t80 48.5l92 -119q-76 -57 -109 -67.5t-79 -10.5t-132 26.5t-123 26.5t-60.5 -17.5t-44.5 -33.5z" />
<glyph unicode="&#xd6;" horiz-adv-x="1462" d="M39 647.5q0 271.5 206 479t483 207.5t475.5 -199t198.5 -480t-199 -483.5t-479 -202.5q-281 0 -483 203.5t-202 475zM240 651q0 -201 139.5 -344t340.5 -143t342 143t141 345t-140 344.5t-340 142.5t-341.5 -143.5t-141.5 -344.5zM480 1428v244h179v-244h-179zM761 1428 v244h183v-244h-183z" />
<glyph unicode="&#xd7;" horiz-adv-x="922" d="M119 332l255 253l-255 256l82 82l255 -256l256 256l82 -82l-256 -256l256 -253l-84 -84l-254 255l-253 -255z" />
<glyph unicode="&#xd8;" horiz-adv-x="1086" d="M23 479q0 192 149.5 354t359.5 162q77 0 252 -65l96 129l107 -76l-96 -129q84 -96 118.5 -176t34.5 -224q0 -181 -150.5 -329t-361.5 -148q-53 0 -103.5 9.5t-139.5 48.5l-98 -134l-103 79l95 131q-160 176 -160 368zM199 484q0 -114 94 -225l386 525q-78 36 -127 39 q-150 0 -251.5 -97.5t-101.5 -241.5zM400 179q62 -27 134 -27q129 0 224.5 80t109.5 217q0 146 -88 255z" />
<glyph unicode="&#xd9;" horiz-adv-x="1302" d="M41 1135v164h486v-164h-139v-688q0 -121 65.5 -207t183.5 -86t186 91t68 202v688h-136v164h484v-164h-153v-720q0 -187 -129.5 -316.5t-324.5 -129.5t-316 128.5t-121 329.5v708h-154zM191 1599l72 152l466 -259l-62 -129z" />
<glyph unicode="&#xda;" horiz-adv-x="1302" d="M41 1135v164h486v-164h-139v-688q0 -121 65.5 -207t183.5 -86t186 91t68 202v688h-136v164h484v-164h-153v-720q0 -187 -129.5 -316.5t-324.5 -129.5t-316 128.5t-121 329.5v708h-154zM558 1502l466 263l76 -152l-480 -236z" />
<glyph unicode="&#xdb;" horiz-adv-x="1302" d="M41 1135v164h486v-164h-139v-688q0 -121 65.5 -207t183.5 -86t186 91t68 202v688h-136v164h484v-164h-153v-720q0 -187 -129.5 -316.5t-324.5 -129.5t-316 128.5t-121 329.5v708h-154zM239 1399l313 281h120l316 -281h-216l-168 144l-160 -144h-205z" />
<glyph unicode="&#xdc;" horiz-adv-x="1302" d="M41 1135v164h486v-164h-139v-688q0 -121 65.5 -207t183.5 -86t186 91t68 202v688h-136v164h484v-164h-153v-720q0 -187 -129.5 -316.5t-324.5 -129.5t-316 128.5t-121 329.5v708h-154zM394 1418v244h179v-244h-179zM675 1418v244h183v-244h-183z" />
<glyph unicode="&#xdd;" horiz-adv-x="1267" d="M32 1125v164h480v-164h-137l265 -519l256 519h-141v164h480v-164h-140l-359 -688v-283h152v-164h-499v164h154v283l-367 688h-144zM527 1496l466 263l76 -152l-480 -236z" />
<glyph unicode="&#xdf;" horiz-adv-x="1086" d="M23 0v164h141v735q0 181 117 306t280.5 125t276 -114t112.5 -260q0 -179 -170 -264q129 -23 205 -117.5t76 -219.5q0 -191 -108 -285t-278 -93q-101 0 -176 31v168q100 -43 152 -43q86 0 153.5 62t67.5 158t-60.5 156t-226.5 78h-62v160l62 2q72 10 121 66.5t49 136.5 t-52 137t-146 57.5t-148 -78.5t-54 -184v-884h-332z" />
<glyph unicode="&#xe0;" horiz-adv-x="1211" d="M23.5 468q-0.5 209 143 366t348.5 157q107 0 199 -52t154 -143v168h316v-164h-140v-636h140v-164h-316v156q-113 -176 -330.5 -176t-365.5 139.5t-148.5 348.5zM47 1311l72 152l466 -259l-62 -129zM205 481.5q0 -138.5 95.5 -236t233.5 -97.5t238 100t100 238.5 t-99.5 233.5t-238 95t-234 -97.5t-95.5 -236z" />
<glyph unicode="&#xe1;" horiz-adv-x="1211" d="M23.5 468q-0.5 209 143 366t348.5 157q107 0 199 -52t154 -143v168h316v-164h-140v-636h140v-164h-316v156q-113 -176 -330.5 -176t-365.5 139.5t-148.5 348.5zM205 481.5q0 -138.5 95.5 -236t233.5 -97.5t238 100t100 238.5t-99.5 233.5t-238 95t-234 -97.5t-95.5 -236z M423 1204l466 263l76 -152l-480 -236z" />
<glyph unicode="&#xe2;" horiz-adv-x="1211" d="M23.5 468q-0.5 209 143 366t348.5 157q107 0 199 -52t154 -143v168h316v-164h-140v-636h140v-164h-316v156q-113 -176 -330.5 -176t-365.5 139.5t-148.5 348.5zM205 481.5q0 -138.5 95.5 -236t233.5 -97.5t238 100t100 238.5t-99.5 233.5t-238 95t-234 -97.5t-95.5 -236z M210 1120l313 281h120l316 -281h-216l-168 144l-160 -144h-205z" />
<glyph unicode="&#xe3;" horiz-adv-x="1211" d="M23.5 468q-0.5 209 143 366t348.5 157q107 0 199 -52t154 -143v168h316v-164h-140v-636h140v-164h-316v156q-113 -176 -330.5 -176t-365.5 139.5t-148.5 348.5zM205 481.5q0 -138.5 95.5 -236t233.5 -97.5t238 100t100 238.5t-99.5 233.5t-238 95t-234 -97.5t-95.5 -236z M246 1285q100 66 185 66q43 0 125 -29t108.5 -29t53.5 7.5t80 48.5l92 -119q-76 -57 -109 -67.5t-79 -10.5t-132 26.5t-123 26.5t-60.5 -17.5t-44.5 -33.5z" />
<glyph unicode="&#xe4;" horiz-adv-x="1211" d="M23.5 468q-0.5 209 143 366t348.5 157q107 0 199 -52t154 -143v168h316v-164h-140v-636h140v-164h-316v156q-113 -176 -330.5 -176t-365.5 139.5t-148.5 348.5zM205 481.5q0 -138.5 95.5 -236t233.5 -97.5t238 100t100 238.5t-99.5 233.5t-238 95t-234 -97.5t-95.5 -236z M304 1151v244h179v-244h-179zM585 1151v244h183v-244h-183z" />
<glyph unicode="&#xe5;" horiz-adv-x="1211" d="M23.5 468q-0.5 209 143 366t348.5 157q107 0 199 -52t154 -143v168h316v-164h-140v-636h140v-164h-316v156q-113 -176 -330.5 -176t-365.5 139.5t-148.5 348.5zM205 481.5q0 -138.5 95.5 -236t233.5 -97.5t238 100t100 238.5t-99.5 233.5t-238 95t-234 -97.5t-95.5 -236z M330 1286.5q0 86.5 60.5 151t145.5 64.5q86 0 150.5 -60.5t64.5 -147.5t-58.5 -149t-146.5 -62t-152 58.5t-64 145zM439 1287q0 -41 28 -69t69 -28t69.5 28t28.5 69t-28.5 69.5t-69.5 28.5t-69 -28.5t-28 -69.5z" />
<glyph unicode="&#xe6;" horiz-adv-x="1897" d="M31 488q0 209 145.5 352t350.5 143q103 0 194.5 -46t146.5 -133v160h172v-164q64 86 150 138.5t183 52.5q213 0 364 -142.5t151 -376.5l-2 -49h-831q14 -117 106.5 -192t211.5 -75t178 37q16 10 95 90h201q-53 -138 -181.5 -218.5t-265 -80.5t-210.5 46t-150 146v-176 h-172v183q-39 -103 -131 -151t-206 -48q-230 0 -365 147.5t-135 356.5zM203 488q0 -140 95.5 -240t238.5 -100t245 100t102 240.5t-101.5 233.5t-241 93t-239 -93.5t-99.5 -233.5zM1055 560h652q0 105 -105.5 186t-221.5 81t-203 -76t-122 -191z" />
<glyph unicode="&#xe7;" horiz-adv-x="1047" d="M43 500.5q0 198.5 146 344.5t329.5 146t320.5 -137v110h152v-305h-164q-47 78 -125 117t-171 39q-135 0 -224 -102.5t-89 -235t97 -233t231 -100.5q90 0 169 46t116 126h193q-74 -162 -184.5 -253t-279.5 -90l-31 -82l19 2q70 0 118 -48t48 -129t-55.5 -128.5t-124 -47.5 t-119 44.5t-58.5 119.5h111q14 -25 25 -41t41.5 -16t50.5 18.5t20 49.5q0 78 -67 78q-39 4 -58 -33l-100 39l73 181q-174 33 -292 177.5t-118 343z" />
<glyph unicode="&#xe8;" d="M26 1320l72 152l466 -259l-62 -129zM27 488q0 209 149.5 356t352.5 147q162 0 295.5 -100.5t178.5 -262.5q17 -69 17 -213h-825q16 -131 113.5 -208.5t222.5 -77.5q159 0 273 150h183q-53 -142 -180.5 -220.5t-283.5 -78.5q-217 0 -356.5 149.5t-139.5 358.5zM195 556 h665q0 109 -110 192t-225 83t-214.5 -79t-115.5 -196z" />
<glyph unicode="&#xe9;" d="M27 488q0 209 149.5 356t352.5 147q162 0 295.5 -100.5t178.5 -262.5q17 -69 17 -213h-825q16 -131 113.5 -208.5t222.5 -77.5q159 0 273 150h183q-53 -142 -180.5 -220.5t-283.5 -78.5q-217 0 -356.5 149.5t-139.5 358.5zM195 556h665q0 109 -110 192t-225 83 t-214.5 -79t-115.5 -196zM419 1184l466 263l76 -152l-480 -236z" />
<glyph unicode="&#xea;" d="M27 488q0 209 149.5 356t352.5 147q162 0 295.5 -100.5t178.5 -262.5q17 -69 17 -213h-825q16 -131 113.5 -208.5t222.5 -77.5q159 0 273 150h183q-53 -142 -180.5 -220.5t-283.5 -78.5q-217 0 -356.5 149.5t-139.5 358.5zM169 1122l313 281h120l316 -281h-216l-168 144 l-160 -144h-205zM195 556h665q0 109 -110 192t-225 83t-214.5 -79t-115.5 -196z" />
<glyph unicode="&#xeb;" d="M27 488q0 209 149.5 356t352.5 147q162 0 295.5 -100.5t178.5 -262.5q17 -69 17 -213h-825q16 -131 113.5 -208.5t222.5 -77.5q159 0 273 150h183q-53 -142 -180.5 -220.5t-283.5 -78.5q-217 0 -356.5 149.5t-139.5 358.5zM195 556h665q0 109 -110 192t-225 83 t-214.5 -79t-115.5 -196zM244 1122v244h179v-244h-179zM525 1122v244h183v-244h-183z" />
<glyph unicode="&#xec;" horiz-adv-x="544" d="M-238 1340l72 152l466 -259l-62 -129zM33 0v172h146v669h-146v171h336v-840h148v-172h-484z" />
<glyph unicode="&#xed;" horiz-adv-x="544" d="M33 0v172h146v669h-146v171h336v-840h148v-172h-484zM195 1223l466 263l76 -152l-480 -236z" />
<glyph unicode="&#xee;" horiz-adv-x="544" d="M-111 1159l312 280h121l316 -280h-217l-167 144l-160 -144h-205zM33 0v172h146v669h-146v171h336v-840h148v-172h-484z" />
<glyph unicode="&#xef;" horiz-adv-x="544" d="M12 1180v244h179v-244h-179zM33 0v172h146v669h-146v171h336v-840h148v-172h-484zM293 1180v244h183v-244h-183z" />
<glyph unicode="&#xf0;" d="M51 439q0 187 124.5 317.5t288.5 130.5q80 0 150 -44l-128 183l-154 -90l-69 98l156 89l-121 176h213l60 -88l151 86l58 -97l-144 -84l253 -373q14 -20 39 -73.5t32 -66.5q27 -76 27 -170q0 -179 -142.5 -323.5t-334.5 -144.5t-325.5 143.5t-133.5 330.5zM232 438 q0 -110 84 -198t201 -88t201 84t84 202t-87 201t-200 83t-198 -87t-85 -197z" />
<glyph unicode="&#xf1;" horiz-adv-x="1211" d="M49 0v164h142v636h-142v164h318v-153q51 84 130.5 129t175.5 45q164 0 264.5 -112t100.5 -280l2 -429h140v-164h-456v164h140v365q0 113 -61 197t-171 83q-148 0 -215 -95q-51 -72 -50 -195v-355h140v-164h-458zM230 1295q100 66 185 66q43 0 125 -29t108.5 -29t53.5 7.5 t80 48.5l92 -119q-76 -57 -109 -67.5t-79 -10.5t-132 26.5t-123 26.5t-60.5 -17.5t-44.5 -33.5z" />
<glyph unicode="&#xf2;" horiz-adv-x="1086" d="M23 484q0 211 148.5 359t357 148t356 -147t147.5 -358t-145.5 -360t-358 -149t-359 148t-146.5 359zM80 1311l72 152l466 -259l-62 -129zM195 484q0 -138 96.5 -237t234.5 -99t236 98.5t98 234.5t-97.5 235t-233.5 99q-137 0 -235.5 -96.5t-98.5 -234.5z" />
<glyph unicode="&#xf3;" horiz-adv-x="1086" d="M23 484q0 211 148.5 359t357 148t356 -147t147.5 -358t-145.5 -360t-358 -149t-359 148t-146.5 359zM195 484q0 -138 96.5 -237t234.5 -99t236 98.5t98 234.5t-97.5 235t-233.5 99q-137 0 -235.5 -96.5t-98.5 -234.5zM447 1204l466 263l76 -152l-480 -236z" />
<glyph unicode="&#xf4;" horiz-adv-x="1086" d="M23 484q0 211 148.5 359t357 148t356 -147t147.5 -358t-145.5 -360t-358 -149t-359 148t-146.5 359zM158 1139l313 281h120l316 -281h-216l-168 144l-160 -144h-205zM195 484q0 -138 96.5 -237t234.5 -99t236 98.5t98 234.5t-97.5 235t-233.5 99q-137 0 -235.5 -96.5 t-98.5 -234.5z" />
<glyph unicode="&#xf5;" horiz-adv-x="1086" d="M23 484q0 211 148.5 359t357 148t356 -147t147.5 -358t-145.5 -360t-358 -149t-359 148t-146.5 359zM195 484q0 -138 96.5 -237t234.5 -99t236 98.5t98 234.5t-97.5 235t-233.5 99q-137 0 -235.5 -96.5t-98.5 -234.5zM211 1315q100 66 185 66q43 0 125 -29t108.5 -29 t53.5 7.5t80 48.5l92 -119q-76 -57 -109 -67.5t-79 -10.5t-132 26.5t-123 26.5t-60.5 -17.5t-44.5 -33.5z" />
<glyph unicode="&#xf6;" horiz-adv-x="1086" d="M23 484q0 211 148.5 359t357 148t356 -147t147.5 -358t-145.5 -360t-358 -149t-359 148t-146.5 359zM195 484q0 -138 96.5 -237t234.5 -99t236 98.5t98 234.5t-97.5 235t-233.5 99q-137 0 -235.5 -96.5t-98.5 -234.5zM273 1151v244h179v-244h-179zM554 1151v244h183v-244 h-183z" />
<glyph unicode="&#xf7;" horiz-adv-x="1123" d="M88 414v140h948v-140h-948zM447 207q0 51 33 84t84 33t83 -30t32 -83t-32.5 -87t-81 -34t-83.5 33t-35 84zM447 755q0 49 33 84t84 35t83 -34t32 -82t-32.5 -82t-82 -34t-83.5 32t-34 81z" />
<glyph unicode="&#xf8;" horiz-adv-x="1462" d="M39 609q0 295 184 506.5t479 210.5q115 0 209.5 -23t182.5 -84l137 168l111 -88l-139 -168q197 -242 197 -476q0 -281 -193 -480t-489 -198q-109 0 -166 12.5t-209 82.5l-140 -175l-111 87l148 180q-201 214 -201 445zM234 648q0 -164 133 -324l600 735q-98 51 -105 53 q-55 20 -168 19q-197 0 -328.5 -145t-131.5 -338zM472 232q105 -72 254 -72q185 0 330 147.5t145 340.5q0 181 -126 323z" />
<glyph unicode="&#xf9;" horiz-adv-x="1183" d="M35 800v164h320v-562q0 -107 63.5 -185.5t177.5 -78.5t177.5 78t63.5 178l2 406h-147v164h324v-800h143v-164h-309v137q-106 -160 -318 -160q-148 0 -253 115t-105 253l2 455h-141zM82 1291l72 152l466 -259l-62 -129z" />
<glyph unicode="&#xfa;" horiz-adv-x="1183" d="M35 800v164h320v-562q0 -107 63.5 -185.5t177.5 -78.5t177.5 78t63.5 178l2 406h-147v164h324v-800h143v-164h-309v137q-106 -160 -318 -160q-148 0 -253 115t-105 253l2 455h-141zM458 1184l466 263l76 -152l-480 -236z" />
<glyph unicode="&#xfb;" horiz-adv-x="1183" d="M35 800v164h320v-562q0 -107 63.5 -185.5t177.5 -78.5t177.5 78t63.5 178l2 406h-147v164h324v-800h143v-164h-309v137q-106 -160 -318 -160q-148 0 -253 115t-105 253l2 455h-141zM216 1120l313 281h120l316 -281h-216l-168 144l-160 -144h-205z" />
<glyph unicode="&#xfc;" horiz-adv-x="1183" d="M35 800v164h320v-562q0 -107 63.5 -185.5t177.5 -78.5t177.5 78t63.5 178l2 406h-147v164h324v-800h143v-164h-309v137q-106 -160 -318 -160q-148 0 -253 115t-105 253l2 455h-141zM322 1141v244h179v-244h-179zM603 1141v244h183v-244h-183z" />
<glyph unicode="&#xfd;" horiz-adv-x="1141" d="M31 800v164h449v-164h-117l212 -576l232 576h-120v164h444v-164h-132l-412 -991h137v-164h-457v164h133l80 195l-312 796h-137zM468 1174l466 263l76 -152l-480 -236z" />
<glyph unicode="&#xff;" horiz-adv-x="1158" d="M31 800v164h449v-164h-117l212 -576l232 576h-120v164h444v-164h-132l-412 -991h137v-164h-457v164h133l80 195l-312 796h-137zM349 1141v244h179v-244h-179zM630 1141v244h183v-244h-183z" />
<glyph unicode="&#x141;" horiz-adv-x="0" />
<glyph unicode="&#x152;" horiz-adv-x="2003" d="M39 658.5q0 283.5 200 479.5t463 196q152 0 285 -75t205 -212v252h790v-359h-195v187h-400v-392h419v-156h-419v-407h400v195h195v-367h-790v248q-72 -137 -202 -206t-288 -69q-254 0 -458.5 201t-204.5 484.5zM232 649.5q0 -200.5 138.5 -343t336.5 -142.5t335.5 143.5 t137.5 342.5t-135.5 344t-333.5 145t-338.5 -144.5t-140.5 -345z" />
<glyph unicode="&#x153;" horiz-adv-x="1897" d="M23 487.5q0 201.5 156 363t359 161.5q129 0 246 -72t176 -189q66 119 175 185.5t234 66.5q242 0 381.5 -166t139.5 -410h-835q18 -127 111.5 -201t214.5 -74q200 0 277 137h201q-51 -148 -185.5 -226t-298.5 -78.5t-257 64.5q-49 33 -158 164q-66 -117 -182.5 -173 t-254.5 -56q-230 0 -365 151t-135 352.5zM189 490q0 -14 4 -34q14 -129 112.5 -218.5t234.5 -89.5t236 100t100 241t-100.5 239.5t-247 98.5t-243 -111t-96.5 -226zM1059 564h648q-25 98 -112.5 182.5t-202.5 84.5t-208.5 -72t-124.5 -195z" />
<glyph unicode="&#x178;" horiz-adv-x="1228" d="M12 1135v164h480v-164h-137l265 -519l256 519h-141v164h480v-164h-140l-359 -688v-283h152v-164h-499v164h154v283l-367 688h-144zM371 1438v255h189v-255h-189zM665 1438v255h193v-255h-193z" />
<glyph unicode="&#x2c6;" horiz-adv-x="934" d="M-373 1071l313 281h120l316 -281h-216l-168 144l-160 -144h-205z" />
<glyph unicode="&#x2dc;" horiz-adv-x="934" d="M-320 1178q100 66 185 66q43 0 125 -29t108.5 -29t53.5 7.5t80 48.5l92 -119q-76 -57 -109 -67.5t-79 -10.5t-132 26.5t-123 26.5t-60.5 -17.5t-44.5 -33.5z" />
<glyph unicode="&#x2000;" horiz-adv-x="892" />
<glyph unicode="&#x2001;" horiz-adv-x="1785" />
<glyph unicode="&#x2002;" horiz-adv-x="892" />
<glyph unicode="&#x2003;" horiz-adv-x="1785" />
<glyph unicode="&#x2004;" horiz-adv-x="595" />
<glyph unicode="&#x2005;" horiz-adv-x="446" />
<glyph unicode="&#x2006;" horiz-adv-x="297" />
<glyph unicode="&#x2007;" horiz-adv-x="297" />
<glyph unicode="&#x2008;" horiz-adv-x="223" />
<glyph unicode="&#x2009;" horiz-adv-x="357" />
<glyph unicode="&#x200a;" horiz-adv-x="99" />
<glyph unicode="&#x2010;" horiz-adv-x="598" d="M64 396v172h447v-172h-447z" />
<glyph unicode="&#x2011;" horiz-adv-x="598" d="M64 396v172h447v-172h-447z" />
<glyph unicode="&#x2012;" horiz-adv-x="598" d="M64 396v172h447v-172h-447z" />
<glyph unicode="&#x2013;" horiz-adv-x="975" d="M64 388v176h851v-176h-851z" />
<glyph unicode="&#x2014;" horiz-adv-x="1574" d="M64 388v176h1452v-176h-1452z" />
<glyph unicode="&#x2018;" horiz-adv-x="312" d="M64 835v281q0 76 34.5 131.5t110.5 55.5q12 0 39 -4v-111q-39 0 -57.5 -18.5t-18.5 -102.5h76v-232h-184z" />
<glyph unicode="&#x2019;" horiz-adv-x="302" d="M64 841v109q41 -10 60.5 18.5t19.5 69.5v35h-80v232h184v-281q0 -76 -35 -130.5t-114 -54.5q-23 0 -35 2z" />
<glyph unicode="&#x201a;" horiz-adv-x="434" d="M64 0v293h299v-357q0 -113 -88 -173t-211 -59v140q129 0 129 121q0 23 -2 35h-127z" />
<glyph unicode="&#x201c;" horiz-adv-x="598" d="M64 835v281q0 76 34.5 131.5t110.5 55.5q12 0 39 -4v-111q-39 0 -57.5 -18.5t-18.5 -102.5h76v-232h-184zM343 835v281q0 76 36 131.5t113 55.5q8 0 35 -4v-111q-39 0 -59.5 -15t-20.5 -54.5t2 -51.5h78v-232h-184z" />
<glyph unicode="&#x201d;" horiz-adv-x="598" d="M64 841v109q41 -10 60.5 18.5t19.5 69.5v35h-80v232h184v-281q0 -76 -35 -130.5t-114 -54.5q-23 0 -35 2zM343 841v109q8 -2 20 -2q60 0 60 125h-80v232h184v-281q0 -80 -35.5 -133t-118.5 -52q-20 0 -30 2z" />
<glyph unicode="&#x201e;" horiz-adv-x="867" d="M64 0v293h299v-357q0 -107 -67 -176q-33 -35 -73 -45.5t-89 -10.5h-70v140h24q53 0 72 22q24 27 31 62v72h-127zM495 0v293h293v-357q0 -62 -11.5 -98.5t-48 -73.5t-82 -48.5t-90.5 -11.5h-61v140q41 0 58 4t39.5 20.5t24 29t3.5 24.5v78h-125z" />
<glyph unicode="&#x2022;" horiz-adv-x="380" d="M72 586q0 54 32.5 90t90 36t89.5 -39t32 -91t-31 -89t-88.5 -37t-91 38t-33.5 92z" />
<glyph unicode="&#x2026;" horiz-adv-x="1568" d="M162 0v228h183v-228h-183zM689 -10v228h183v-228h-183zM1215 -10v228h183v-228h-183z" />
<glyph unicode="&#x202f;" horiz-adv-x="357" />
<glyph unicode="&#x2039;" horiz-adv-x="1341" d="M51 624l335 482l195 -137l-246 -345l252 -339l-201 -141z" />
<glyph unicode="&#x203a;" horiz-adv-x="669" d="M103 285l252 339l-246 345l195 137l336 -482l-336 -480z" />
<glyph unicode="&#x205f;" horiz-adv-x="446" />
<glyph unicode="&#x2122;" horiz-adv-x="1675" d="M43 1069v240h571v-240h-132v88h-68v-398h64v-145h-302v145h68v398h-70v-88h-131zM718 614v145h68v409h-68v143h312l148 -425l146 425h326v-143h-68v-409h68v-145h-322v145h70v314l-161 -459h-123l-162 455v-310h78v-145h-312z" />
<glyph unicode="&#xe000;" horiz-adv-x="965" d="M0 0v965h965v-965h-965z" />
</font>
</defs>
</svg>
